<!DOCTYPE svg PUBLIC "-//W3C//DTD SVG 1.1//EN" "http://www.w3.org/Graphics/SVG/1.1/DTD/svg11.dtd">
<!-- Uploaded to: SVG Repo, www.svgrepo.com, Transformed by: SVG Repo Mixer Tools -->
<svg fill="#ffffff" width="800px" height="800px" viewBox="0 0 24 24" xmlns="http://www.w3.org/2000/svg" stroke="#ffffff" stroke-width="0.00024000000000000003">
<g id="SVGRepo_bgCarrier" stroke-width="0"/>
<g id="SVGRepo_tracerCarrier" stroke-linecap="round" stroke-linejoin="round"/>
<g id="SVGRepo_iconCarrier">
<path d="M3,22a1,1,0,0,0,1,1H20a1,1,0,0,0,1-1V18a3,3,0,0,0-3-3H13V12a1,1,0,0,0-1-1H11V6A5.006,5.006,0,0,0,6,1,1,1,0,0,0,5,2v9H4a1,1,0,0,0-1,1Zm6-1V20H19v1Zm10-3H9a1,1,0,0,1,1-1h8A1,1,0,0,1,19,18ZM7,3.171A3.006,3.006,0,0,1,9,6v5H7ZM5,13h6v2H10a3,3,0,0,0-3,3v3H5Z"/>
</g>
</svg>