<?xml version="1.0" encoding="utf-8"?>
<!-- Generator: Adobe Illustrator 27.5.0, SVG Export Plug-In . SVG Version: 6.00 Build 0)  -->
<svg version="1.1" xmlns="http://www.w3.org/2000/svg" xmlns:xlink="http://www.w3.org/1999/xlink" x="0px" y="0px"
	 viewBox="0 0 2560 1440" style="enable-background:new 0 0 2560 1440;" xml:space="preserve">
<g id="BACKGROUND">
	<rect x="-0.121" style="fill:#F8E756;" width="2560" height="1440"/>
</g>
<g id="OBJECTS">
	<g>
		<defs>
			<rect id="SVGID_1_" x="-0.121" width="2560" height="1440"/>
		</defs>
		<clipPath id="SVGID_00000132085359974612183300000005142857883996511651_">
			<use xlink:href="#SVGID_1_"  style="overflow:visible;"/>
		</clipPath>
		<g style="clip-path:url(#SVGID_00000132085359974612183300000005142857883996511651_);">
			<g>
				<g>
					<path style="fill:#EDD605;" d="M1188.998,1439.909c0-368.898,299.052-667.95,667.95-667.95
						c368.899,0,667.951,299.052,667.951,667.95h136.564c0-444.321-360.194-804.515-804.515-804.514
						c-444.321,0-804.515,360.193-804.515,804.515L1188.998,1439.909z"/>
					<path style="fill:#FCF6F1;" d="M1829.182,1142.013c164.573,0,297.986,133.414,297.986,297.987l164.8,0
						c0-255.591-207.196-462.787-462.786-462.787c-255.59,0-462.787,207.197-462.787,462.787h164.801
						C1531.197,1275.427,1664.609,1142.013,1829.182,1142.013z"/>
				</g>
				<g>
					<path style="fill:#FCF6F1;" d="M1382.399-7.84c0,368.898-299.052,667.95-667.95,667.95
						c-368.899,0-667.951-299.052-667.951-667.95H-90.067c0,444.321,360.194,804.515,804.516,804.514
						c444.321,0,804.515-360.193,804.514-804.514L1382.399-7.84z"/>
					<path style="fill:#EDD605;" d="M742.214,290.056c-164.573,0-297.986-133.414-297.986-297.987l-164.8,0
						c0,255.591,207.196,462.787,462.786,462.787c255.59,0,462.787-207.197,462.787-462.787H1040.2
						C1040.2,156.643,906.787,290.056,742.214,290.056z"/>
				</g>
			</g>
			<g>
				<path style="fill:#DF7026;" d="M2560,698.18v303.958h-415.165c-83.936,0-151.979-68.043-151.979-151.979v0
					c0-83.935,68.043-151.979,151.979-151.979H2560z"/>
				<polygon style="fill:#8FCCB9;" points="2104.392,921.126 2056.714,921.126 2090.43,887.41 2075.754,872.739 2042.043,906.451 
					2042.043,858.773 2021.293,858.773 2021.293,906.455 1987.578,872.739 1972.902,887.41 2006.618,921.126 1958.939,921.126 
					1958.939,941.876 2006.618,941.876 1972.902,975.592 1987.578,990.263 2021.293,956.547 2021.293,1004.227 2042.043,1004.227 
					2042.043,956.551 2075.754,990.263 2090.43,975.592 2056.714,941.876 2104.392,941.876 				"/>
				<polygon style="fill:#FCF6F1;" points="2480.222,709.847 2436.357,709.847 2436.357,665.979 2421.762,665.979 2421.762,709.847 
					2377.897,709.847 2377.897,724.443 2421.762,724.443 2421.762,768.307 2436.357,768.307 2436.357,724.443 2480.222,724.443 				
					"/>
			</g>
			<g>
				<g>
					<path style="fill:#3762EF;" d="M270.537,1440h-62.079c0-15.978-3.993-22.173-11.241-33.417
						c-8.925-13.843-21.147-32.8-21.147-67.058c0-34.258,12.222-53.214,21.147-67.055c7.248-11.244,11.241-17.439,11.241-33.417
						c0-15.976-3.993-22.167-11.241-33.409c-8.925-13.841-21.147-32.797-21.147-67.051c0-34.255,12.222-53.212,21.147-67.052
						c7.248-11.242,11.241-17.435,11.241-33.411c0-15.974-3.993-22.166-11.241-33.406c-8.925-13.841-21.147-32.796-21.147-67.051
						c0-34.254,12.222-53.209,21.147-67.049c3.415-5.297,6.108-9.473,8.001-14.08c4.795-11.671,16.114-19.329,28.732-19.329h0
						c21.954,0,37.052,22.214,28.813,42.564c-4.079,10.076-9.103,17.867-13.372,24.487c-7.249,11.241-11.242,17.432-11.242,33.406
						c0,15.976,3.993,22.167,11.242,33.409c8.925,13.839,21.147,32.795,21.147,67.049c0,34.255-12.222,53.212-21.147,67.052
						c-7.249,11.242-11.242,17.435-11.242,33.412c0,15.974,3.993,22.166,11.242,33.407c8.925,13.841,21.147,32.797,21.147,67.052
						c0,34.258-12.222,53.215-21.147,67.055c-7.249,11.244-11.242,17.439-11.242,33.417c0,15.981,3.993,22.175,11.242,33.419
						C258.315,1386.788,270.537,1405.745,270.537,1440z"/>
				</g>
				<g>
					<path style="fill:#3762EF;" d="M401.355,1440h-62.079c0-15.978-3.993-22.173-11.242-33.417
						c-8.925-13.843-21.147-32.8-21.147-67.058c0-34.258,12.223-53.214,21.147-67.055c7.248-11.244,11.242-17.439,11.242-33.417
						c0-15.976-3.993-22.167-11.242-33.409c-8.925-13.841-21.147-32.797-21.147-67.051c0-34.255,12.223-53.212,21.147-67.052
						c7.248-11.242,11.242-17.435,11.242-33.411c0-15.974-3.993-22.166-11.242-33.406c-8.925-13.841-21.147-32.796-21.147-67.051
						c0-34.254,12.223-53.209,21.147-67.049c3.415-5.297,6.108-9.473,8.001-14.08c4.795-11.671,16.114-19.329,28.732-19.329h0
						c21.954,0,37.052,22.214,28.813,42.564c-4.079,10.076-9.103,17.867-13.372,24.487c-7.249,11.241-11.242,17.432-11.242,33.406
						c0,15.976,3.993,22.167,11.242,33.409c8.925,13.839,21.147,32.795,21.147,67.049c0,34.255-12.222,53.212-21.147,67.052
						c-7.249,11.242-11.242,17.435-11.242,33.412c0,15.974,3.993,22.166,11.242,33.407c8.925,13.841,21.147,32.797,21.147,67.052
						c0,34.258-12.222,53.215-21.147,67.055c-7.249,11.244-11.242,17.439-11.242,33.417c0,15.981,3.993,22.175,11.242,33.419
						C389.133,1386.788,401.355,1405.745,401.355,1440z"/>
				</g>
				<g>
					<path style="fill:#3762EF;" d="M532.173,1440h-62.079c0-15.978-3.993-22.173-11.242-33.417
						c-8.925-13.843-21.147-32.8-21.147-67.058c0-34.258,12.222-53.214,21.147-67.055c7.249-11.244,11.242-17.439,11.242-33.417
						c0-15.976-3.993-22.167-11.242-33.409c-8.925-13.841-21.147-32.797-21.147-67.051c0-34.255,12.222-53.212,21.147-67.052
						c7.249-11.242,11.242-17.435,11.242-33.411c0-15.974-3.993-22.166-11.242-33.406c-8.925-13.841-21.147-32.796-21.147-67.051
						c0-34.254,12.222-53.209,21.147-67.049c3.415-5.297,6.108-9.473,8.001-14.08c4.795-11.671,16.114-19.329,28.732-19.329h0
						c21.954,0,37.052,22.214,28.813,42.564c-4.079,10.076-9.103,17.867-13.372,24.487c-7.248,11.241-11.242,17.432-11.242,33.406
						c0,15.976,3.993,22.167,11.242,33.409c8.925,13.839,21.147,32.795,21.147,67.049c0,34.255-12.222,53.212-21.147,67.052
						c-7.248,11.242-11.242,17.435-11.242,33.412c0,15.974,3.993,22.166,11.242,33.407c8.925,13.841,21.147,32.797,21.147,67.052
						c0,34.258-12.222,53.215-21.147,67.055c-7.248,11.244-11.242,17.439-11.242,33.417c0,15.981,3.993,22.175,11.242,33.419
						C519.951,1386.788,532.173,1405.745,532.173,1440z"/>
				</g>
			</g>
			<g>
				<path style="fill:#8FCCB9;" d="M1913.125-361.603c24.917,0,45.115,20.199,45.115,45.115V325.54
					c0,26.79,21.795,48.586,48.586,48.586s48.586-21.796,48.586-48.586v-426.862c0-24.916,20.199-45.115,45.116-45.115
					c24.916,0,45.115,20.199,45.115,45.115V325.54c0,76.542-62.273,138.817-138.817,138.817
					c-76.544,0-138.817-62.274-138.817-138.817v-642.028C1868.01-341.404,1888.208-361.603,1913.125-361.603z"/>
			</g>
			<polygon style="fill:#FCF6F1;" points="1188.015,838.758 1142.297,838.758 1142.297,793.036 1127.084,793.036 1127.084,838.758 
				1081.366,838.758 1081.366,853.97 1127.084,853.97 1127.084,899.688 1142.297,899.688 1142.297,853.97 1188.015,853.97 			"/>
			<polygon style="fill:#3762EF;" points="2431.222,292.44 2385.504,292.44 2385.504,246.718 2370.291,246.718 2370.291,292.44 
				2324.573,292.44 2324.573,307.652 2370.291,307.652 2370.291,353.37 2385.504,353.37 2385.504,307.652 2431.222,307.652 			"/>
			<polygon style="fill:#3762EF;" points="1036.875,174.77 985.385,174.77 1021.797,138.359 1005.948,122.514 969.541,158.921 
				969.541,107.431 947.132,107.431 947.132,158.926 910.721,122.514 894.871,138.359 931.283,174.77 879.793,174.77 
				879.793,197.179 931.283,197.179 894.871,233.591 910.721,249.435 947.132,213.023 947.132,264.516 969.541,264.516 
				969.541,213.028 1005.948,249.435 1021.797,233.591 985.385,197.179 1036.875,197.179 			"/>
			<path style="fill:#FCF9ED;" d="M1709.036,429.653c-37.048,0-67.081,30.033-67.081,67.081c0,37.048,30.033,67.081,67.081,67.081
				s67.081-30.033,67.081-67.081C1776.117,459.686,1746.084,429.653,1709.036,429.653z M1709.036,539.927
				c-23.855,0-43.193-19.338-43.193-43.193c0-23.855,19.338-43.193,43.193-43.193c23.855,0,43.193,19.338,43.193,43.193
				C1752.23,520.588,1732.891,539.927,1709.036,539.927z"/>
			<path style="fill:#8FCCB9;" d="M144.799,274.166c-37.048,0-67.081,30.033-67.081,67.081c0,37.048,30.033,67.081,67.081,67.081
				s67.081-30.033,67.081-67.081C211.88,304.199,181.847,274.166,144.799,274.166z M144.799,384.44
				c-23.855,0-43.193-19.338-43.193-43.193c0-23.855,19.338-43.193,43.193-43.193c23.855,0,43.193,19.338,43.193,43.193
				C187.992,365.101,168.654,384.44,144.799,384.44z"/>
			<path style="fill:#3762EF;" d="M1602.407,1194.627c-37.048,0-67.081,30.033-67.081,67.081c0,37.048,30.033,67.081,67.081,67.081
				s67.081-30.033,67.081-67.081C1669.488,1224.66,1639.455,1194.627,1602.407,1194.627z M1602.407,1304.901
				c-23.855,0-43.193-19.338-43.193-43.193c0-23.855,19.338-43.193,43.193-43.193c23.855,0,43.193,19.338,43.193,43.193
				C1645.6,1285.563,1626.262,1304.901,1602.407,1304.901z"/>
		</g>
	</g>
	<path style="fill:#DF7026;" d="M1031.315,938.345c-9.983-27.733-23.992-53.546-41.304-76.728
		c-14.864-19.904-32.209-37.934-51.503-53.531c-31.991-25.86-83.882-43.773-69.124-96.422
		c13.248-47.372,45.627-77.139,45.609-130.312c0-11.098-12.191-17.867-21.58-11.955c-10.168,6.398-20.151,12.626-29.057,15.591
		c-1.113,0.374-2.226,0.728-3.34,1.064c-24.211,7.189-49.671,4.83-71.938-5.337V0H684.864v479.692l-38.401-41.839
		c-38.836-42.299-105.171-45.079-147.384-6.155c-42.232,38.925-44.996,105.396-6.16,147.714l50.971,55.523
		c17.331,18.874,27.258,43.605,26.942,69.25c-0.445,36.593-18.072,70.817-47.557,92.488
		c-72.92,53.582-120.272,140.325-119.421,237.549c1.63,186.138,175.971,301.718,348.113,301.719
		c163.971,0,296.882-132.923,296.882-296.883C1048.849,1003.697,1042.671,969.791,1031.315,938.345z"/>
	<g>
		<path style="fill:#FCF6F1;" d="M1598.633,313.772L1598.633,313.772c-8.646,0-15.719-7.074-15.719-15.719l0,0
			c0-8.645,7.073-15.719,15.719-15.719l0,0c8.646,0,15.719,7.073,15.719,15.719l0,0
			C1614.352,306.699,1607.278,313.772,1598.633,313.772z"/>
		<path style="fill:#FCF6F1;" d="M1122.723,1323.734L1122.723,1323.734c-8.646,0-15.719-7.073-15.719-15.719l0,0
			c0-8.646,7.074-15.719,15.719-15.719l0,0c8.646,0,15.719,7.073,15.719,15.719l0,0
			C1138.442,1316.66,1131.368,1323.734,1122.723,1323.734z"/>
		<path style="fill:#3762EF;" d="M406.435,218.859L406.435,218.859c-8.646,0-15.719-7.074-15.719-15.719l0,0
			c0-8.645,7.074-15.719,15.719-15.719l0,0c8.646,0,15.719,7.074,15.719,15.719l0,0
			C422.154,211.786,415.081,218.859,406.435,218.859z"/>
		<path style="fill:#3762EF;" d="M1958.939,1303.077L1958.939,1303.077c-8.646,0-15.719-7.074-15.719-15.719l0,0
			c0-8.645,7.073-15.719,15.719-15.719l0,0c8.646,0,15.719,7.074,15.719,15.719l0,0
			C1974.659,1296.004,1967.585,1303.077,1958.939,1303.077z"/>
		<path style="fill:#3762EF;" d="M1279.879,1042.804L1279.879,1042.804c-8.646,0-15.719-7.074-15.719-15.719l0,0
			c0-8.645,7.074-15.719,15.719-15.719l0,0c8.646,0,15.719,7.074,15.719,15.719l0,0
			C1295.598,1035.731,1288.524,1042.804,1279.879,1042.804z"/>
		<path style="fill:#3762EF;" d="M1736.51,190.98L1736.51,190.98c-8.646,0-15.719-7.074-15.719-15.719l0,0
			c0-8.645,7.073-15.719,15.719-15.719l0,0c8.646,0,15.719,7.074,15.719,15.719l0,0C1752.23,183.907,1745.156,190.98,1736.51,190.98
			z"/>
		<path style="fill:#8FCCB9;" d="M85.719,1231.7L85.719,1231.7c-8.646,0-15.719-7.074-15.719-15.719l0,0
			c0-8.645,7.074-15.719,15.719-15.719l0,0c8.646,0,15.719,7.074,15.719,15.719l0,0C101.438,1224.627,94.365,1231.7,85.719,1231.7z"
			/>
		<path style="fill:#FCF6F1;" d="M1598.633,850.159L1598.633,850.159c-8.646,0-15.719-7.074-15.719-15.719l0,0
			c0-8.645,7.073-15.719,15.719-15.719l0,0c8.646,0,15.719,7.074,15.719,15.719l0,0
			C1614.352,843.086,1607.278,850.159,1598.633,850.159z"/>
		<path style="fill:#8FCCB9;" d="M2362.178,1245.377L2362.178,1245.377c-8.646,0-15.719-7.074-15.719-15.719l0,0
			c0-8.645,7.073-15.719,15.719-15.719l0,0c8.646,0,15.719,7.074,15.719,15.719l0,0
			C2377.897,1238.303,2370.824,1245.377,2362.178,1245.377z"/>
		<path style="fill:#FCF6F1;" d="M2120.111,605.139L2120.111,605.139c-8.646,0-15.719-7.074-15.719-15.719l0,0
			c0-8.645,7.074-15.719,15.719-15.719l0,0c8.646,0,15.719,7.074,15.719,15.719l0,0
			C2135.83,598.066,2128.757,605.139,2120.111,605.139z"/>
		<path style="fill:#FCF6F1;" d="M2377.897,865.878L2377.897,865.878c-8.646,0-15.719-7.074-15.719-15.719l0,0
			c0-8.645,7.074-15.719,15.719-15.719l0,0c8.646,0,15.719,7.073,15.719,15.719l0,0
			C2393.617,858.805,2386.543,865.878,2377.897,865.878z"/>
		<path style="fill:#8FCCB9;" d="M988.65,555.646L988.65,555.646c-8.646,0-15.719-7.074-15.719-15.719l0,0
			c0-8.645,7.074-15.719,15.719-15.719l0,0c8.646,0,15.719,7.073,15.719,15.719l0,0
			C1004.369,548.572,997.295,555.646,988.65,555.646z"/>
		<path style="fill:#FCF6F1;" d="M2429.06,179.785L2429.06,179.785c-8.646,0-15.719-7.074-15.719-15.719l0,0
			c0-8.645,7.073-15.719,15.719-15.719l0,0c8.646,0,15.719,7.074,15.719,15.719l0,0
			C2444.779,172.712,2437.705,179.785,2429.06,179.785z"/>
		<path style="fill:#FCF6F1;" d="M117.326,707.905L117.326,707.905c-8.646,0-15.719-7.074-15.719-15.719l0,0
			c0-8.645,7.074-15.719,15.719-15.719l0,0c8.646,0,15.719,7.073,15.719,15.719l0,0
			C133.045,700.832,125.971,707.905,117.326,707.905z"/>
	</g>
	<g>
		<g>
			
				<text id="XMLID_4_" transform="matrix(1 0 0 1 1231.0835 717.1431)" style="font-family:'Montserrat-Bold'; font-size:31.8374px; letter-spacing:3;">NEW MUSIC VBLOG EVERY WEEK.</text>
			
				<text id="XMLID_1_" transform="matrix(1 0 0 1 1038.6782 671.1484)" style="fill:#DF7026; font-family:'Montserrat-Black'; font-size:73.9572px; letter-spacing:7;">ALL ABOUT MUSIC</text>
		</g>
		<g>
			<g>
				<g>
					<g>
						<g>
							<g>
								<path d="M1658.39,820.446h6.94v-15.441h5.043v-5.519h-5.043v-1.779c0-1.361,0.182-2.198,0.654-2.67
									c0.354-0.417,1.067-0.717,2.08-0.717c0.943,0,2.074,0.128,3.14,0.429l0.895-4.824c-1.838-0.644-3.735-0.825-5.697-0.825
									c-1.961,0-3.505,0.3-4.748,1.008c-1.249,0.708-2.079,1.49-2.551,2.626c-0.477,0.997-0.713,2.722-0.713,4.856v1.897h-3.805
									v5.519h3.805V820.446z"/>
							</g>
							<g>
								<path style="fill-rule:evenodd;clip-rule:evenodd;" d="M1741.311,799.386c-1.777-7.432-8.189-12.499-15.921-12.611
									c-1.02,0.05-2.121,0.124-3.122,0.325c-10.841,2.164-16.421,14.137-11.179,23.783c0.188,0.276,0.188,0.514,0.15,0.814
									c-0.763,2.489-1.464,5.054-2.139,7.582c-0.113,0.438-0.113,0.438,0.307,0.326c2.646-0.726,5.267-1.389,7.907-2.052
									c0.232-0.063,0.394-0.063,0.588,0.038c3.391,1.726,6.969,2.201,10.722,1.513
									C1737.576,817.365,1743.45,808.245,1741.311,799.386z M1727.686,816.476c-0.781,0.151-1.514,0.213-1.883,0.163
									c-2.884,0-5.205-0.638-7.362-1.889c-0.307-0.188-0.538-0.238-0.832-0.138c-1.476,0.364-2.915,0.764-4.379,1.139
									c-0.3,0.087-0.332,0.037-0.263-0.275c0.388-1.339,0.751-2.715,1.176-4.116c0.094-0.375,0.069-0.662-0.169-0.975
									c-2.959-4.804-2.828-10.748,0.482-15.202c3.447-4.603,8.182-6.518,13.806-5.317c5.548,1.163,9.102,4.778,10.366,10.296
									C1740.422,807.718,1735.317,815.238,1727.686,816.476z"/>
								<path style="fill-rule:evenodd;clip-rule:evenodd;" d="M1729.662,810.883c-0.57,0.05-1.145-0.05-1.695-0.225
									c-3.735-1.088-6.563-3.377-8.833-6.492c-0.844-1.151-1.651-2.39-1.895-3.841c-0.344-1.688,0.188-3.203,1.47-4.366
									c0.425-0.401,1.67-0.588,2.177-0.326c0.163,0.137,0.256,0.276,0.363,0.438c0.463,1.163,0.957,2.239,1.426,3.34
									c0.069,0.225,0.057,0.462-0.069,0.688c-0.25,0.514-0.632,0.926-1.001,1.352c-0.313,0.263-0.313,0.575-0.1,0.9
									c1.339,2.227,3.147,3.828,5.574,4.78c0.351,0.15,0.62,0.087,0.839-0.188c0.419-0.488,0.831-1.013,1.22-1.526
									c0.237-0.325,0.556-0.376,0.907-0.226c0.801,0.362,1.589,0.738,2.352,1.087c0.213,0.113,0.363,0.189,0.55,0.251
									c0.807,0.413,0.807,0.463,0.714,1.326c-0.106,1.714-1.414,2.578-2.909,2.991
									C1730.344,810.933,1730.019,810.933,1729.662,810.883z"/>
							</g>
							<g>
								<path style="fill-rule:evenodd;clip-rule:evenodd;" d="M1772.337,814.512c2.553,0.163,5.03-0.225,7.357-1.276
									c1.051-0.45,2.001-1.013,2.952-1.764c-1.113-0.037-2.127-0.287-3.053-0.764c-1.576-0.788-2.689-2.064-3.366-3.752
									c-0.15-0.375-0.15-0.375,0.264-0.351c1.125,0.1,1.951,0.076,2.589-0.174c-0.612-0.213-1.189-0.325-1.664-0.651
									c-2.352-1.289-3.602-3.316-3.815-6.006c-0.026-0.313,0.063-0.35,0.35-0.213c0.827,0.451,1.727,0.664,2.765,0.763
									c-0.45-0.412-0.838-0.738-1.188-1.089c-1.952-2.101-2.415-5.442-1.115-7.994c0.175-0.338,0.238-0.338,0.476-0.074
									c3.29,3.791,7.381,6.092,12.311,6.868c0.501,0.1,1.051,0.113,1.564,0.2c0.35,0.063,0.387-0.1,0.337-0.375
									c-0.512-2.964,0.876-5.892,3.504-7.382c2.678-1.563,6.154-1.063,8.307,1.039c0.25,0.213,0.488,0.275,0.776,0.187
									c1.326-0.287,2.563-0.788,3.728-1.45c0.1-0.026,0.174-0.088,0.3-0.188c-0.501,1.664-1.501,2.89-2.978,3.891
									c1.363-0.137,2.589-0.526,3.804-1.001c0.024,0.175-0.101,0.275-0.176,0.413c-0.826,1.126-1.79,2.139-2.927,2.99
									c-0.213,0.176-0.263,0.301-0.263,0.576c0.087,5.167-1.565,9.77-4.867,13.773c-3.103,3.654-7.069,5.843-11.785,6.618
									c-5.005,0.776-9.71-0.074-14.037-2.739C1772.438,814.55,1772.375,814.512,1772.337,814.512z"/>
							</g>
							<g>
								<path style="fill-rule:evenodd;clip-rule:evenodd;" d="M1864.169,788.939c-7.107,0-14.237,0-21.344,0
									c-2.54,0-3.854,1.326-3.854,3.879c0,3.516,0,7.044,0,10.609c0,3.528,0,7.119,0,10.685c0,2.452,1.351,3.802,3.728,3.802
									c7.182,0,14.313,0,21.469,0c2.478,0,3.841-1.35,3.841-3.841c0-7.118,0-14.212,0-21.344
									C1868.01,790.265,1866.646,788.939,1864.169,788.939z M1861.817,792.205c2.878,0,2.878,0,2.878,2.878
									c0,2.815,0,2.815-2.828,2.815c-2.852,0-2.852,0-2.852-2.852C1859.015,792.205,1859.015,792.205,1861.817,792.205z
									 M1853.51,797.797c3.027,0,5.629,2.615,5.58,5.631c-0.025,3.09-2.602,5.655-5.68,5.605c-3.053-0.076-5.63-2.64-5.555-5.681
									C1847.929,800.312,1850.481,797.797,1853.51,797.797z M1864.694,812.886c-0.025,1.35-0.376,1.739-1.726,1.739
									c-3.165,0-6.331,0-9.497,0c-3.14,0-6.304,0-9.47,0c-1.326,0-1.701-0.388-1.701-1.739c0-3.478,0.013-7.032-0.05-10.559
									c0-1.002,0.275-1.228,1.2-1.189c1.326,0.087,1.352,0.037,1.202,1.326c-0.513,4.492,2.589,8.832,7.005,9.696
									c4.554,0.876,9.109-1.851,10.359-6.217c0.375-1.365,0.488-2.815,0.201-4.166c-0.1-0.501,0.024-0.601,0.475-0.601
									c2.001-0.15,2.001-0.187,2.001,1.89C1864.694,806.305,1864.694,809.608,1864.694,812.886z"/>
							</g>
						</g>
					</g>
					
						<text transform="matrix(1 0 0 1 1651.6567 846.3623)" style="font-family:'Montserrat-Regular'; font-size:20.1212px; letter-spacing:4;">@yourusername</text>
				</g>
			</g>
		</g>
	</g>
</g>
</svg>
